<mxfile host="app.diagrams.net" agent="Mozilla/5.0 (Macintosh; Intel Mac OS X 10_15_7) AppleWebKit/537.36 (KHTML, like Gecko) Chrome/128.0.0.0 Safari/537.36" version="24.7.6">
  <diagram name="페이지-1" id="ZB0TgJu45h2uJxswDwOA">
    <mxGraphModel dx="2074" dy="1121" grid="1" gridSize="10" guides="1" tooltips="1" connect="1" arrows="1" fold="1" page="1" pageScale="1" pageWidth="827" pageHeight="1169" math="0" shadow="0">
      <root>
        <mxCell id="0" />
        <mxCell id="1" parent="0" />
        <mxCell id="fFU02MTUHFu_sDxCDsin-12" value="" style="rounded=0;whiteSpace=wrap;html=1;fillColor=#f5f5f5;strokeColor=#666666;fontColor=#333333;" vertex="1" parent="1">
          <mxGeometry x="591" y="230" width="170" height="185" as="geometry" />
        </mxCell>
        <mxCell id="fFU02MTUHFu_sDxCDsin-28" style="edgeStyle=orthogonalEdgeStyle;rounded=0;orthogonalLoop=1;jettySize=auto;html=1;entryX=1;entryY=0.5;entryDx=0;entryDy=0;dashed=1;" edge="1" parent="1" source="fFU02MTUHFu_sDxCDsin-1" target="fFU02MTUHFu_sDxCDsin-4">
          <mxGeometry relative="1" as="geometry" />
        </mxCell>
        <mxCell id="fFU02MTUHFu_sDxCDsin-30" value="Subscribe" style="edgeLabel;html=1;align=center;verticalAlign=middle;resizable=0;points=[];" vertex="1" connectable="0" parent="fFU02MTUHFu_sDxCDsin-28">
          <mxGeometry x="-0.0632" relative="1" as="geometry">
            <mxPoint as="offset" />
          </mxGeometry>
        </mxCell>
        <mxCell id="fFU02MTUHFu_sDxCDsin-1" value="Store" style="shape=cylinder3;whiteSpace=wrap;html=1;boundedLbl=1;backgroundOutline=1;size=15;fillColor=#f8cecc;strokeColor=#b85450;" vertex="1" parent="1">
          <mxGeometry x="431" y="400" width="90" height="100" as="geometry" />
        </mxCell>
        <mxCell id="fFU02MTUHFu_sDxCDsin-14" style="edgeStyle=orthogonalEdgeStyle;rounded=0;orthogonalLoop=1;jettySize=auto;html=1;entryX=0.5;entryY=1;entryDx=0;entryDy=0;" edge="1" parent="1" source="fFU02MTUHFu_sDxCDsin-4" target="fFU02MTUHFu_sDxCDsin-5">
          <mxGeometry relative="1" as="geometry" />
        </mxCell>
        <mxCell id="fFU02MTUHFu_sDxCDsin-4" value="UI" style="swimlane;whiteSpace=wrap;html=1;fillColor=#dae8fc;strokeColor=#6c8ebf;" vertex="1" parent="1">
          <mxGeometry x="61" y="400" width="180" height="100" as="geometry" />
        </mxCell>
        <mxCell id="fFU02MTUHFu_sDxCDsin-15" style="edgeStyle=orthogonalEdgeStyle;rounded=0;orthogonalLoop=1;jettySize=auto;html=1;entryX=0;entryY=0.5;entryDx=0;entryDy=0;" edge="1" parent="1" source="fFU02MTUHFu_sDxCDsin-5" target="fFU02MTUHFu_sDxCDsin-6">
          <mxGeometry relative="1" as="geometry" />
        </mxCell>
        <mxCell id="fFU02MTUHFu_sDxCDsin-5" value="Dispatch Action&lt;div&gt;(redux-saga hook)&lt;/div&gt;" style="rounded=1;whiteSpace=wrap;html=1;fillColor=#d5e8d4;strokeColor=#82b366;" vertex="1" parent="1">
          <mxGeometry x="91" y="230" width="120" height="60" as="geometry" />
        </mxCell>
        <mxCell id="fFU02MTUHFu_sDxCDsin-16" style="edgeStyle=orthogonalEdgeStyle;rounded=0;orthogonalLoop=1;jettySize=auto;html=1;entryX=0;entryY=0.5;entryDx=0;entryDy=0;" edge="1" parent="1" source="fFU02MTUHFu_sDxCDsin-6" target="fFU02MTUHFu_sDxCDsin-7">
          <mxGeometry relative="1" as="geometry" />
        </mxCell>
        <mxCell id="fFU02MTUHFu_sDxCDsin-6" value="Effect&lt;div&gt;(Model)&lt;/div&gt;" style="rounded=1;whiteSpace=wrap;html=1;fillColor=#d5e8d4;strokeColor=#82b366;" vertex="1" parent="1">
          <mxGeometry x="261" y="230" width="120" height="60" as="geometry" />
        </mxCell>
        <mxCell id="fFU02MTUHFu_sDxCDsin-7" value="callWrap&lt;div&gt;(hookUtils)&lt;/div&gt;" style="rounded=1;whiteSpace=wrap;html=1;fillColor=#d5e8d4;strokeColor=#82b366;" vertex="1" parent="1">
          <mxGeometry x="431" y="230" width="120" height="60" as="geometry" />
        </mxCell>
        <mxCell id="fFU02MTUHFu_sDxCDsin-20" style="edgeStyle=orthogonalEdgeStyle;rounded=0;orthogonalLoop=1;jettySize=auto;html=1;entryX=0.5;entryY=0;entryDx=0;entryDy=0;" edge="1" parent="1" source="fFU02MTUHFu_sDxCDsin-8" target="fFU02MTUHFu_sDxCDsin-9">
          <mxGeometry relative="1" as="geometry" />
        </mxCell>
        <mxCell id="fFU02MTUHFu_sDxCDsin-8" value="Transaction Start" style="rounded=1;whiteSpace=wrap;html=1;" vertex="1" parent="1">
          <mxGeometry x="611" y="245" width="130" height="30" as="geometry" />
        </mxCell>
        <mxCell id="fFU02MTUHFu_sDxCDsin-21" style="edgeStyle=orthogonalEdgeStyle;rounded=0;orthogonalLoop=1;jettySize=auto;html=1;entryX=0.5;entryY=0;entryDx=0;entryDy=0;" edge="1" parent="1" source="fFU02MTUHFu_sDxCDsin-9" target="fFU02MTUHFu_sDxCDsin-10">
          <mxGeometry relative="1" as="geometry" />
        </mxCell>
        <mxCell id="fFU02MTUHFu_sDxCDsin-9" value="API Request(call)&lt;div&gt;API Response(put)&lt;/div&gt;" style="rounded=1;whiteSpace=wrap;html=1;" vertex="1" parent="1">
          <mxGeometry x="611" y="305" width="130" height="30" as="geometry" />
        </mxCell>
        <mxCell id="fFU02MTUHFu_sDxCDsin-10" value="Transaction End" style="rounded=1;whiteSpace=wrap;html=1;" vertex="1" parent="1">
          <mxGeometry x="611" y="365" width="130" height="30" as="geometry" />
        </mxCell>
        <mxCell id="fFU02MTUHFu_sDxCDsin-17" style="edgeStyle=orthogonalEdgeStyle;rounded=0;orthogonalLoop=1;jettySize=auto;html=1;entryX=-0.006;entryY=0.162;entryDx=0;entryDy=0;entryPerimeter=0;" edge="1" parent="1" source="fFU02MTUHFu_sDxCDsin-7" target="fFU02MTUHFu_sDxCDsin-12">
          <mxGeometry relative="1" as="geometry" />
        </mxCell>
        <mxCell id="fFU02MTUHFu_sDxCDsin-27" style="edgeStyle=orthogonalEdgeStyle;rounded=0;orthogonalLoop=1;jettySize=auto;html=1;entryX=1;entryY=0.5;entryDx=0;entryDy=0;entryPerimeter=0;" edge="1" parent="1" source="fFU02MTUHFu_sDxCDsin-12" target="fFU02MTUHFu_sDxCDsin-1">
          <mxGeometry relative="1" as="geometry" />
        </mxCell>
        <mxCell id="fFU02MTUHFu_sDxCDsin-34" value="모든 ts 진행 상태를 reducer를 이용하여&lt;div&gt;store.[model].transactions 에 저장&lt;/div&gt;" style="text;html=1;align=center;verticalAlign=middle;resizable=0;points=[];autosize=1;strokeColor=none;fillColor=none;" vertex="1" parent="1">
          <mxGeometry x="556" y="415" width="210" height="40" as="geometry" />
        </mxCell>
        <mxCell id="fFU02MTUHFu_sDxCDsin-35" value="callWrap 동작" style="text;html=1;align=center;verticalAlign=middle;resizable=0;points=[];autosize=1;strokeColor=none;fillColor=none;" vertex="1" parent="1">
          <mxGeometry x="591" y="200" width="90" height="30" as="geometry" />
        </mxCell>
      </root>
    </mxGraphModel>
  </diagram>
</mxfile>
